<svg xmlns="http://www.w3.org/2000/svg" viewBox="0 0 414 374.42"><defs><style>.cls-1{fill:#a9f98c;}.cls-2{fill:#6fc148;}.cls-3{fill:#86e260;}.cls-4{fill:#7ff946;}.cls-5{fill:#d3edc5;}.cls-6{fill:#0c0501;}.cls-7{fill:#2b1910;}.cls-8{fill:#f2c3a7;}.cls-9{fill:#dba489;}.cls-10{fill:#f3f6ff;}.cls-11{fill:#b7b7b7;}.cls-12{fill:#b7866e;}</style></defs><g id="Camada_2" data-name="Camada 2"><g id="Camada_12" data-name="Camada 12"><path class="cls-1" d="M31.2,97.42H319.8c12.26,0,22.2-12.09,22.2-27h0c0-14.91-9.94-27-22.2-27H31.2C18.94,43.42,9,55.51,9,70.42H9C9,85.33,18.94,97.42,31.2,97.42Z"/><path class="cls-2" d="M178.8,169.36H397.2c9.28,0,16.8-12.06,16.8-26.94h0c0-14.88-7.52-26.94-16.8-26.94H178.8c-9.28,0-16.8,12.06-16.8,26.94h0C162,157.3,169.52,169.36,178.8,169.36Z"/><path class="cls-3" d="M12.16,244.42H170.22c6.72,0,12.16-4.7,12.16-10.5h0c0-5.8-5.44-10.5-12.16-10.5H12.16c-6.72,0-12.16,4.7-12.16,10.5H0C0,239.72,5.44,244.42,12.16,244.42Z"/><path class="cls-4" d="M28.16,232.42H186.22c6.72,0,12.16-4.7,12.16-10.5h0c0-5.8-5.44-10.5-12.16-10.5H28.16c-6.72,0-12.16,4.7-12.16,10.5h0C16,227.72,21.44,232.42,28.16,232.42Z"/><circle class="cls-2" cx="378" cy="70.42" r="27"/><circle class="cls-5" cx="405" cy="43.42" r="9"/></g><g id="TERNO"><path class="cls-6" d="M98.17,369.06c-9-.91-16.86-7.29-21.47-15.12s-6.41-17-7.44-26c-4.56-40.12,5-80.48,4.82-120.86-.1-20.44-2.7-40.79-3.43-61.21-.65-18.11.16-36.23,1-54.33,1-21.42,1.93-42.88,5.33-64,.89-5.55,2-11.28,5.35-15.82,6.23-8.53,18-10.37,28.57-11,32.56-2,65.19.82,97.68,3.61C222.79,5.5,239.21,8,246.41,20.37c-18.07.63-36,3.94-53.62,8-8.93,2-18,4.58-25.44,9.88-9,6.41-15,16.28-19.86,26.25a203.74,203.74,0,0,0-20.49,85c-.43,21.87,2.68,43.64,5.29,65.36q8.13,67.77,9.85,136.12c.13,5.38.09,11.24-3.21,15.49a17.49,17.49,0,0,1-8.15,5.37C120.37,375.48,106.86,375.9,98.17,369.06Z"/><path class="cls-6" d="M217.29,351.92c35.22-18.85,65.83-48,81.63-84.66,4-9.23,7-19,7.75-29,.48-6.59,0-13.27,1.24-19.75,3.15-15.92,16.79-29.12,16.58-45.35-.18-13.49-9.86-24.68-18.4-35.13s-16.87-23.36-13.78-36.5c1.24-5.28,4.27-10,5.25-15.37,1.34-7.27-1.25-14.62-3.8-21.56q-4.23-11.46-8.45-22.94-3.74-10.14-7.47-20.3c-2.14-5.78-4-5.88-9.77-5.36-8.67.77-17.21-2.12-24.68-6.59H90v357a61.55,61.55,0,0,0,9,1.52q16.17,1.95,32.15,5.21"/></g><g id="Camada_7" data-name="Camada 7"><path class="cls-7" d="M156.8,45.08c-2.3-2.79-2.21-7.39.48-9.81s7.63-1.78,9.3,1.43a6.16,6.16,0,0,1-.87,6.66,7.41,7.41,0,0,1-6.42,2.38,4.93,4.93,0,0,1-3.37-1.65c-1.25-1.57-.93-4,.16-5.64"/><path class="cls-7" d="M149.56,41.65c7.47,8,11.51,18.49,15.39,28.71,8.92,23.51,17.84,47.06,24.79,71.22-5.57-.58-8.65-6.59-10.73-11.8L158,77.16c-3.48-8.75-7-17.51-11.09-26-2.05-4.24-4.25-8.41-6.66-12.45-.6-1-1.22-2-1.85-3-.53-.83-1.7-2-1.94-3-.32-1.28,1.34-1.89,2.41-1.5.88.32,1.48,1.38,2.09,2,.9,1,1.84,1.89,2.8,2.79C145.72,37.93,147.73,39.7,149.56,41.65Z"/><path class="cls-7" d="M215.92,149.1c3.51-13.51-4.62-26.9-10.19-39.69-6.89-15.81-10.11-32.95-15.93-49.18C186.14,50,181.26,40,174.25,31.66a60,60,0,0,0-5.57-5.82c-.42-.37-1.52-1.78-2.18-1.41s-.28,1.61-.21,2c.37,2.47,2.05,4.76,3.18,6.93q2.16,4.14,4.26,8.32Q182,58.24,189.34,75.21T203,109.54q6.33,17.42,11.65,35.18Z"/><path class="cls-7" d="M263.79,89.84c.26,2,.65,4.13,2.25,5.27,2.35,1.67,6.08.22,8.21,2.16,1.25,1.14,1.43,3,1.52,4.71.33,5.85.6,12-1.95,17.29-1.58,3.27-4.15,6-5.47,9.38-2.36,6-.63,13.85-5.23,18.43a203.75,203.75,0,0,1-8.8-55.73c-.21-11.71.59-23.43,0-35.13a146.3,146.3,0,0,0-2.39-19.89c-.31-1.6-.7-3.18-1-4.78-.15-.93-.64-2.82,0-3.64,1-1.24,3.16.27,3.93,1.1,1.75,1.89,1.5,5.33,1.82,7.73l1.34,10.13,2.69,20.25Q262.28,78.49,263.79,89.84Z"/><path class="cls-7" d="M106.9,342c3.9,4.32,8.5,9,14.32,9a4.49,4.49,0,0,0,2.6-.62c1.45-1,1.67-3,1.75-4.75l1.66-35.33a20.3,20.3,0,0,0-.57-7.46c-.79-2.38-2.71-4.56-5.2-4.9-2.21-.3-4.34.86-6.23,2.06a38,38,0,0,0-9.33,7.82c-3.53,4.34-5.8,9.47-10.19,13.09-2.06,1.7-1.86,3.27-.51,5.41,1.57,2.48,3.09,5,4.81,7.41A98.41,98.41,0,0,0,106.9,342Z"/><path class="cls-7" d="M244.55,138.79a109.74,109.74,0,0,0,1-19c-.2-5.7-.89-11.53-3.45-16.63a32.29,32.29,0,0,0-7.15-9.08A49.8,49.8,0,0,0,225.7,87c-.1,1.13,1.87,3.35,2.44,4.41.86,1.58,1.63,3.21,2.33,4.87A91.61,91.61,0,0,1,234,106.43c2.05,7,3.58,14.2,5.87,21.16.64,2,1.34,3.9,2.13,5.8.38.94.79,1.86,1.22,2.78C243.47,136.69,244.62,138.27,244.55,138.79Z"/></g><g id="Camada_8" data-name="Camada 8"><path class="cls-8" d="M341.15,162c8,5.59,10.89,16,17.44,23.25,5,5.52,12.19,9.28,15.31,16,2.32,5,2,10.8,1.47,16.3-.58,6.54-1.27,13.2-4,19.18-1.5,3.31-3.6,6.39-4.45,9.92-.94,3.95-.24,8.07.17,12.1s.5,8.35-1.51,11.88-6.78,5.75-10.28,3.71a10.58,10.58,0,0,1-2.68-2.49c-2.73-3.28-5-6.92-8-10s-6.69-5.7-10.95-6.11c-1.53,4.26.51,8.87,1.75,13.23,1.84,6.45,1.94,13.26,2,20,.06,4.94-.52,10.95-5,13.06-3,1.42-6.73.28-9.25-1.89s-4.1-5.23-5.61-8.19l-6-11.74-3.55,15.45c-.79,3.45-2,7.36-5.17,8.81s-7-.32-9.1-3.06-2.89-6.24-3.68-9.6-1.71-6.85-4-9.44c-2.63,1.94-2.55,6.26-5.23,8.13-1.91,1.32-4.6.87-6.59-.32-4.07-2.45-5.95-7.26-7.56-11.73-3.49-9.66-6.88-20.78-1.91-29.77,1.55-2.79,3.87-5.25,4.6-8.36.66-2.77,0-5.66-.74-8.42a71.41,71.41,0,0,0-2-6.93c-.95-2.61-2.2-5.13-2.71-7.86-1.38-7.43,3-14.6,7.15-20.91l17.37-26.31c2.39-3.62,4.85-6.92,8.4-9.49a14.42,14.42,0,0,1,7.14-3c3.33-.32,6.76-.19,10.11-.29a93,93,0,0,1,13.76.41,30,30,0,0,1,11.91,3.66C340.29,161.42,340.72,161.7,341.15,162Z"/></g><g id="Camada_11" data-name="Camada 11"><path class="cls-9" d="M334.67,277a1.18,1.18,0,0,0,.58-.95,10.82,10.82,0,0,0-1.53-6.7,37.57,37.57,0,0,1-3.1-6.26,30,30,0,0,0-.93-3.2,6.68,6.68,0,0,0-4.95-3.89,2.24,2.24,0,0,0-1.31.09c-.88.4-1.07,1.55-1.12,2.52a37.13,37.13,0,0,0-.06,5.48c.13,1.19.85,1.53,1.87,1.94a13.77,13.77,0,0,1,3.74,2.61,25.52,25.52,0,0,1,3.47,3.65C332.53,273.81,333.6,275.41,334.67,277Z"/><path class="cls-9" d="M299.51,272.41a2.36,2.36,0,0,0,3.06,1.58,1.5,1.5,0,0,0,.93-.27c.52-.49.06-1.35-.39-1.92s-.7-.88-1-1.34a10.46,10.46,0,0,1-1.23-2.34,5.62,5.62,0,0,1,.06-4.21c.69-1.46,2.37-3.08,1.39-4.8-.41-.72-1-.43-1.5.06-1.78,1.82-2.6,5.06-2.75,7.51C297.93,268.82,298.69,270.47,299.51,272.41Z"/><path class="cls-9" d="M276.15,259.66c-.66,5,1.4,10,3.41,14.64.65,1.51,1.53,3.21,3.15,3.54a54.66,54.66,0,0,1-2.56-9.75,40.79,40.79,0,0,1-.59-5.94,19.75,19.75,0,0,0-.32-4.35,4.69,4.69,0,0,0-2.58-3.31,7.7,7.7,0,0,0-1.51,9.75"/><path class="cls-9" d="M331.25,188.66a8.79,8.79,0,0,1-3.38-.42,3.32,3.32,0,0,1-1.06-.54,3.87,3.87,0,0,1-.9-1.41l-1.28-2.85a16.61,16.61,0,0,1-1.88-6.31,11.74,11.74,0,0,0-.22-3.61c-.48-1.31-1.77-2.44-1.53-3.81,2.92,1.1,4.75,4,5.74,7s1.36,6.1,2.49,9c.56,1.44,1.36,2.75,2.06,4.13a3.41,3.41,0,0,0,.75,1.06,7.59,7.59,0,0,0,.86.63c1.62,1.05,3.21,2.11,4.72,3.31a2.05,2.05,0,0,1,.9,1.2c.1.79-.7,1.4-1.47,1.58-2.7.63-5.05-1.7-7.24-3.39a19.07,19.07,0,0,0-16.21-3.28c-1.89.5-3.7,1.27-5.58,1.81-.64.19-4.22,1.32-3.51-.51.25-.64,1.26-1.25,1.77-1.69s1.28-1.07,2-1.57a21,21,0,0,1,4.28-2.55,13.42,13.42,0,0,1,5.33-1.17c3.53,0,6.84,1.61,9.94,3.29,1.18.64,2.36,1.3,3.52,2"/><path class="cls-9" d="M351.89,268a4.77,4.77,0,0,1,.43,4.13c-1.48-.43-2.19-2-3.21-3.21-1.61-1.83-4.25-2.67-5.48-4.78a4.76,4.76,0,0,1-.37-3.75c.29-.94,1.11-2.51,2.21-2.7.92-.17,1.3,1,1.54,1.71a24.48,24.48,0,0,0,1.63,3.93C349.6,265,351,266.34,351.89,268Z"/></g><g id="Camada_9" data-name="Camada 9"><path class="cls-10" d="M393.41,196.66c2.22-.07,4.84.05,6.09,1.89a5.8,5.8,0,0,1,.54,4.09c-1,7.11-5.54,13.16-9.89,18.87-9.62,12.61-19.26,25.25-29.87,37a11.52,11.52,0,0,1-3.33,2.86,10.78,10.78,0,0,1-4.33.83c-3.12.14-6.24.09-9.36,0q-41.6-.76-83.14-2.76a163.78,163.78,0,0,1-16.57-1.38,6.12,6.12,0,0,1-3-1,5,5,0,0,1-1.6-2.65c-1.19-4,.05-8.46,2.28-12s5.38-6.44,8.41-9.35a224.44,224.44,0,0,0,22.71-25.42c1.8-2.35,3.63-4.81,6.2-6.27a18.92,18.92,0,0,1,7.46-2,83.61,83.61,0,0,1,10.62-.43c2.5.06,4.94.48,7.44.41l21.61-.67,21.74-.68,21.6-.67,21.74-.68Z"/></g><g id="Camada_10" data-name="Camada 10"><path class="cls-11" d="M300.26,202.63l44.7-1.7c7.6-.29,15.21-.58,22.78-1.24a6.9,6.9,0,0,1,6.51,10.45h0a48.21,48.21,0,0,1-6.2,8.7c-2.63,2.73-5.87,4.8-8.62,7.42-5.53,5.28-8.74,12.46-12.85,18.91a12,12,0,0,1-2.4,2.94c-2.26,1.84-5.43,1.93-8.34,1.93l-81.16,0a2.93,2.93,0,0,1-2-.7c-1.59-1.48-.13-3.63,1.25-5,10-9.85,20.66-19.15,29.37-30.18,2.81-3.55,5.59-7.43,9.73-9.26,3.55-1.57,7.6-1.4,11.47-1.2"/></g><g id="mao"><path class="cls-8" d="M94.83,322.69A123.2,123.2,0,0,0,109,310c2.27-2.51,4.34-5.21,6.66-7.68a70.89,70.89,0,0,1,6.55-6.06,46.78,46.78,0,0,1,11.1-7.23,28.88,28.88,0,0,1,8.67-2.2c2.22-.21,4.47-.16,6.67-.53,5.78-1,10.64-4.72,15.25-8.35,3.16-2.49,6.4-5.07,8.38-8.57A49.1,49.1,0,0,1,175.1,264c1.86-2.52,5.52-4.18,6.52-7.16,3.17,3.8,6.58,7.76,11.25,9.4a11.44,11.44,0,0,1,3.31,1.39c1.43,1.11,2.13,3.17,3.85,3.74a4.41,4.41,0,0,0,2.66-.13c4.78-1.44,8.21-5.52,11.35-9.4,1.57-1.95,3.85-4,3.21-6.46a9.56,9.56,0,0,0,8.86-3.88,19.58,19.58,0,0,0,1.49-2.69c.83-1.71,2.07-3.63,2.89-5.34a4.5,4.5,0,0,0,3.46-3.16,39.53,39.53,0,0,0,1-4.83c.9-3.74,3.38-6.85,5.39-10.13s3.64-7.2,2.57-10.89a12.31,12.31,0,0,0-4.18-5.78,10.16,10.16,0,0,1-2.9-3c-.62-1.26-.6-3,.68-3.62,4.77,2.49,10.48-1.13,15.84-.75,4.14.3,7.69,3,11.63,4.26,3.73,1.25,7.76,1.27,11.59,2.2,3.58.87,6.95,2.53,10.58,3.2s7.82.11,10.19-2.71c2.21-2.63,2.2-6.61.8-9.74s-4.36-5.09-7-7.31c-5.14-4.37-12-6.1-17.75-9.57-3.36-2-6.34-4.63-9.68-6.7-4.82-3-9.41-6-15-6.84-4.5-.69-8.6-2.9-12.64-5a361.47,361.47,0,0,0-36.49-16.41c-1.62-.62-3.51-1.22-5-.33s-2.07,3-3.86,2.49c-2.15,7.51-7.12,13.83-12,19.94-8.26,10.39-18.59,20-25.05,31.56-3.21,5.77-6.58,11.72-11.95,15.56-6,4.32-13.9,5.43-20,9.61-2.19,1.49-4.12,3.34-6.28,4.88a54.69,54.69,0,0,1-10.31,5.33,17.25,17.25,0,0,0-8.61,7.7c-4.66,8.42-5.67,18.32-6.46,27.91-.91,10.92-1.65,22.09,1.09,32.7,1.56,6,4.19,11.66,6.81,17.28C97,321,94.82,323.08,94.83,322.69Z"/></g><g id="sombra_mao" data-name="sombra mao"><path class="cls-12" d="M284.73,200.8a10.72,10.72,0,0,0,3.61,3.86,7.68,7.68,0,0,0,6.44-.1,4,4,0,0,0,1.61-1,3.08,3.08,0,0,0,.52-2.64,11.67,11.67,0,0,0-3-4.95,20.71,20.71,0,0,0-3.76-3.23,4.71,4.71,0,0,0-3.44-.73c-1.63.29-3.38.92-3.89,2.65C282.19,196.83,283.57,199,284.73,200.8Z"/><path class="cls-12" d="M253,197.59a3.06,3.06,0,0,1,1.16.87,2.22,2.22,0,0,1-.9,3,6.4,6.4,0,0,1-3.39.66l-11.47.13a17.1,17.1,0,0,1-5.44-.53c-3.42-1.09-5.79-4.18-7.59-7.29-.79-1.37-1.52-2.76-2.32-4.12-.53-.89-1.29-1.89-1.21-3s1.27-.3,1.91,0c1.29.63,2.6,1.18,3.93,1.69,5.38,2.06,11,3.32,16.49,5.07A57,57,0,0,1,253,197.59Z"/><path class="cls-12" d="M221,218.74c3.46,2.59,7,5.22,9.65,8.62s4.45,7.73,3.91,12a1.29,1.29,0,0,1-.23.69c-.37.45-1.09.26-1.61,0a12.27,12.27,0,0,1-4.7-4.23c-1.3-2-2-4.36-3.07-6.5-3.57-7-11-11-17.08-16a9.16,9.16,0,0,1-2.88-3.62,2.46,2.46,0,0,1-.09-2.05c.52-.79,1.2-.1,1.73.29l9.18,6.86Z"/><path class="cls-12" d="M209.19,239.92c-2.84-1-5-3.22-7-5.41-1-1.1-2-2.24-3-3.31-.85-.86-2-2.2-3.12-2.61-1.84-.63-3.26,1.82-3.53,3.29-.58,3.12,3.1,3.64,5.38,4.26a33.21,33.21,0,0,1,5.88,2.18,23.14,23.14,0,0,0,2.72,1.16,9.92,9.92,0,0,0,1.4.36A8.45,8.45,0,0,1,209.19,239.92Z"/></g></g></svg>