<svg xmlns="http://www.w3.org/2000/svg" viewBox="0 0 349.34 252.5"><defs><style>.cls-1,.cls-4,.cls-5{fill:#232226;}.cls-2{fill:#3c4659;}.cls-3{fill:#f28095;}.cls-4{font-size:180.82px;}.cls-4,.cls-5{font-family:Roboto-Bold, Roboto;font-weight:700;}.cls-5{font-size:33.48px;}.cls-6{letter-spacing:-0.01em;}</style></defs><g id="Camada_2" data-name="Camada 2"><g id="Camada_2-2" data-name="Camada 2"><rect class="cls-1" x="13.88" y="201.75" width="331.25" height="50.75" rx="25.37"/><rect class="cls-2" x="29.37" y="214.5" width="251.25" height="24.75" rx="12.37"/><rect class="cls-1" y="65" width="202.34" height="31" rx="15.5"/><rect class="cls-2" x="9.47" y="72.79" width="153.47" height="15.12" rx="7.56"/><rect class="cls-1" x="147" y="143" width="202.34" height="31" rx="15.5"/><rect class="cls-2" x="156.47" y="150.79" width="153.47" height="15.12" rx="7.56"/></g><g id="Camada_1-2" data-name="Camada 1"><path class="cls-3" d="M296.38,117V234s-26-70-123-78"/><path class="cls-3" d="M296.38,117A116.93,116.93,0,1,1,285,66.59q2,4.08,3.59,8.33a120.3,120.3,0,0,1,3.83,11.75A117.16,117.16,0,0,1,296.38,117Z"/></g><g id="Camada_4" data-name="Camada 4"><text class="cls-4" transform="translate(124.37 158.69)">E</text><text class="cls-5" transform="translate(183.38 180.18)">B<tspan class="cls-6" x="21.37" y="0">r</tspan><tspan x="33.09" y="0">asil</tspan></text></g></g></svg>